<?xml version="1.0" encoding="utf-8"?>
<!-- Generator: Adobe Illustrator 17.0.0, SVG Export Plug-In . SVG Version: 6.00 Build 0)  -->
<!DOCTYPE svg PUBLIC "-//W3C//DTD SVG 1.1//EN" "http://www.w3.org/Graphics/SVG/1.1/DTD/svg11.dtd">
<svg version="1.1"
	 id="Layer_1" xmlns:inkscape="http://www.inkscape.org/namespaces/inkscape" xmlns:sodipodi="http://sodipodi.sourceforge.net/DTD/sodipodi-0.dtd" xmlns:svg="http://www.w3.org/2000/svg" xmlns:rdf="http://www.w3.org/1999/02/22-rdf-syntax-ns#" xmlns:cc="http://creativecommons.org/ns#" xmlns:dc="http://purl.org/dc/elements/1.1/"
	 xmlns="http://www.w3.org/2000/svg" xmlns:xlink="http://www.w3.org/1999/xlink" x="0px" y="0px" width="391.68px"
	 height="264.384px" viewBox="200.16 112.608 391.68 264.384" enable-background="new 200.16 112.608 391.68 264.384"
	 xml:space="preserve">
<g transform="translate(0,-952.36218)">
	<path fill="#F2F1EF" d="M229.536,1064.97c-4.504,0-8.739,1.111-12.546,2.907l171.207,165.546c3.604,3.487,12.002,3.487,15.606,0
		l171.207-165.546c-3.807-1.796-8.042-2.907-12.546-2.907H229.536z M203.067,1081.8c-1.796,3.807-2.907,8.042-2.907,12.546v205.632
		c0,5.821,1.692,11.204,4.59,15.759l120.564-115.821L203.067,1081.8L203.067,1081.8z M588.933,1081.8l-122.247,118.116
		l120.564,115.821c2.898-4.555,4.59-9.938,4.59-15.759v-205.632C591.84,1089.842,590.729,1085.607,588.933,1081.8z M339.39,1213.533
		l-118.881,114.291c2.856,0.921,5.857,1.53,9.027,1.53h332.928c3.17,0,6.171-0.609,9.027-1.53L452.61,1213.533l-35.037,33.966
		c-11.944,11.557-31.202,11.557-43.146,0L339.39,1213.533L339.39,1213.533z"/>
</g>
</svg>
