<?xml version="1.0" encoding="utf-8"?>
<!-- Generator: Adobe Illustrator 17.0.0, SVG Export Plug-In . SVG Version: 6.00 Build 0)  -->
<!DOCTYPE svg PUBLIC "-//W3C//DTD SVG 1.1//EN" "http://www.w3.org/Graphics/SVG/1.1/DTD/svg11.dtd">
<svg version="1.1" id="Layer_1" xmlns="http://www.w3.org/2000/svg" xmlns:xlink="http://www.w3.org/1999/xlink" x="0px" y="0px"
	 width="339.791px" height="245.143px" viewBox="226.114 122.214 339.791 245.143"
	 enable-background="new 226.114 122.214 339.791 245.143" xml:space="preserve">
<path fill="#F2F1EF" d="M227.974,215.737l2.61-1.86c-3.354-12.299-4.47-20.123-4.47-27.574c0-24.216,63.707-49.18,93.886-55.139
	v-4.842l1.121-1.121l10.805-2.982l1.488,0.744l1.488,4.842c19.75-3.354,42.473-5.591,60.358-5.591c17.88,0,40.607,1.86,59.609,4.842
	l2.61-4.098l2.237-0.744l10.433,0.744l1.121,2.61v4.47c44.705,13.038,89.416,27.569,90.904,49.925l1.121,16.015l2.61,0.744
	l-0.744,30.179l-11.545,7.452l-57.748-9.689l-8.945-8.568l6.335-25.337l3.726-1.86c0.372-1.488,0.744-4.093,0.744-6.708
	c0-13.41-11.922-14.899-30.179-15.648c-3.354,44.338-5.963,48.059-26.453,61.474l50.674,34.649
	c23.099,15.648,31.295,24.588,33.156,50.669l3.726,54.022H261.874l3.721-54.022c1.865-26.081,10.061-35.021,33.156-50.669
	l50.674-34.649c-20.49-13.415-23.099-17.136-26.453-61.474c-21.611,0.744-31.295,1.116-31.295,17.136l3.726,1.121l13.415,19.369
	l-4.475,10.805l-56.255,28.314l-11.922-3.354L227.974,215.737z M395.256,346.51c12.294,0,26.081-3.726,32.412-8.196
	c-16.015-15.276-21.234-21.978-21.234-28.691c-4.475,1.493-8.196,1.865-11.178,1.865c-11.55,0-23.848-5.214-23.848-20.49
	s12.294-20.495,23.848-20.495s23.844,5.214,23.844,20.495c0,7.447-2.61,12.294-7.447,16.015c0,13.038,24.211,9.689,31.295,20.118
	c11.545-8.945,16.015-22.732,16.015-36.137c0-35.026-28.314-55.516-63.707-55.516s-63.707,20.49-63.707,55.516
	C331.544,326.02,359.863,346.51,395.256,346.51z M419.844,203.448c17.885,0,18.257-2.61,26.825-36.886
	c-17.508,0.744-34.277,1.116-51.413,1.116s-33.905-0.372-51.413-1.116c8.568,34.277,8.94,36.886,26.825,36.886H419.844z"/>
</svg>
